<?xml version="1.0" standalone="no"?>
<!DOCTYPE svg PUBLIC "-//W3C//DTD SVG 20010904//EN"
 "http://www.w3.org/TR/2001/REC-SVG-20010904/DTD/svg10.dtd">
<svg version="1.0" xmlns="http://www.w3.org/2000/svg"
 width="300.000000pt" height="298.000000pt" viewBox="0 0 300.000000 298.000000"
 preserveAspectRatio="xMidYMid meet">
<g transform="translate(0.000000,298.000000) scale(0.100000,-0.100000)"
fill="none" stroke="none">
<path d="M55 2959 c120 -49 192 -62 360 -62 162 0 244 10 454 54 56 12 100 24
97 26 -2 2 -64 -7 -137 -21 -340 -64 -544 -63 -733 3 -76 27 -107 26 -41 0z" stroke="white" fill="none"/>
<path d="M193 2973 c26 -2 68 -2 95 0 26 2 4 3 -48 3 -52 0 -74 -1 -47 -3z" stroke="white" fill="none"/>
<path d="M403 2973 c37 -2 96 -2 130 0 34 2 4 3 -68 3 -72 0 -99 -1 -62 -3z" stroke="white" fill="none"/>
<path d="M637 2973 c24 -2 62 -2 86 0 23 2 4 4 -43 4 -47 0 -66 -2 -43 -4z" stroke="white" fill="none"/>
<path d="M1163 2921 c-1 -66 -17 -103 -65 -147 -45 -43 -104 -71 -196 -94
-242 -59 -519 -49 -791 31 -57 16 -106 27 -109 25 -12 -13 186 -68 328 -91
124 -20 361 -20 476 0 261 45 374 133 374 293 0 65 -15 50 -17 -17z" stroke="white" fill="none"/>
<path d="M1258 2973 c29 -2 74 -2 100 0 26 2 2 3 -53 3 -55 0 -76 -1 -47 -3z" stroke="white" fill="none"/>
<path d="M1610 2977 c0 -2 15 -33 34 -70 78 -156 71 -327 -16 -391 -24 -17
-42 -20 -137 -18 -139 2 -202 -16 -336 -99 -55 -34 -129 -75 -165 -90 -208
-88 -612 -49 -898 86 -50 24 -92 40 -92 36 0 -11 159 -84 240 -110 128 -42
251 -62 417 -68 237 -8 296 7 493 127 152 92 185 103 314 101 145 -1 186 16
221 91 44 93 31 218 -36 351 -25 48 -39 68 -39 54z" stroke="white" fill="none"/>
<path d="M1668 2973 c12 -2 30 -2 40 0 9 3 -1 5 -23 4 -22 0 -30 -2 -17 -4z" stroke="white" fill="none"/>
<path d="M1933 2967 c17 -45 31 -146 31 -232 1 -92 -2 -105 -31 -167 -24 -51
-43 -75 -82 -105 -134 -100 -157 -121 -178 -163 -14 -27 -23 -62 -23 -92 0
-106 82 -237 162 -258 68 -19 174 9 279 73 30 19 85 53 122 76 166 102 315
139 597 148 147 5 185 9 155 15 -24 6 -105 5 -200 -1 -283 -18 -416 -58 -612
-185 -124 -80 -191 -108 -267 -114 -54 -4 -76 -1 -103 13 -59 32 -123 156
-123 237 0 39 26 97 58 132 15 15 59 50 99 77 128 87 158 147 158 319 0 116
-19 240 -37 240 -6 0 -8 -6 -5 -13z" stroke="white" fill="none"/>
<path d="M2110 2903 c0 -88 -16 -174 -56 -295 -36 -113 -37 -192 -2 -246 38
-57 86 -77 183 -77 91 0 111 7 273 96 139 77 234 103 380 103 116 0 146 10 66
22 -116 17 -284 -17 -407 -82 -195 -104 -229 -118 -298 -122 -115 -7 -189 43
-203 137 -6 38 4 89 49 236 30 101 48 305 26 305 -7 0 -11 -26 -11 -77z" stroke="white" fill="none"/>
<path d="M2386 2930 c-4 -27 -22 -79 -41 -115 -43 -80 -44 -107 -7 -133 72
-52 219 -57 437 -18 77 14 159 26 183 26 31 0 42 4 42 16 0 18 -54 14 -215
-18 -145 -28 -326 -34 -389 -11 -74 27 -77 39 -33 125 37 72 61 178 40 178 -6
0 -13 -22 -17 -50z" stroke="white" fill="none"/>
<path d="M2620 2946 c0 -44 36 -94 85 -120 54 -28 213 -30 263 -3 39 22 43 41
4 21 -104 -52 -272 -28 -315 45 -9 16 -17 43 -17 60 0 17 -4 31 -10 31 -5 0
-10 -15 -10 -34z" stroke="white" fill="none"/>
<path d="M2693 2973 c9 -2 25 -2 35 0 9 3 1 5 -18 5 -19 0 -27 -2 -17 -5z" stroke="white" fill="none"/>
<path d="M2780 2973 c0 -6 13 -16 30 -23 25 -10 34 -10 56 5 14 9 23 19 20 23
-4 3 -12 0 -18 -6 -15 -15 -61 -15 -76 0 -8 8 -12 8 -12 1z" stroke="white" fill="none"/>
<path d="M2933 2973 c9 -2 25 -2 35 0 9 3 1 5 -18 5 -19 0 -27 -2 -17 -5z" stroke="white" fill="none"/>
<path d="M2992 2930 c0 -19 2 -27 5 -17 2 9 2 25 0 35 -3 9 -5 1 -5 -18z" stroke="white" fill="none"/>
<path d="M3 2905 c0 -27 2 -38 4 -22 2 15 2 37 0 50 -2 12 -4 0 -4 -28z" stroke="white" fill="none"/>
<path d="M2 2820 c0 -19 2 -27 5 -17 2 9 2 25 0 35 -3 9 -5 1 -5 -18z" stroke="white" fill="none"/>
<path d="M0 2185 c0 -18 224 -107 357 -142 94 -24 127 -28 253 -28 122 0 161
4 245 25 139 34 281 35 344 2 67 -36 128 -104 222 -247 138 -210 224 -279 349
-280 50 0 78 6 123 27 57 27 93 60 272 249 140 149 241 180 564 180 113 -1
220 -4 238 -7 19 -4 33 -2 33 3 0 26 -434 32 -552 8 -118 -25 -208 -75 -291
-163 -237 -251 -274 -277 -387 -277 -121 1 -200 66 -342 280 -129 196 -210
261 -337 272 -57 5 -87 1 -266 -37 -233 -50 -477 -16 -734 101 -88 41 -91 42
-91 34z" stroke="white" fill="none"/>
<path d="M0 1981 c0 -7 159 -72 230 -92 32 -10 122 -14 320 -14 267 0 277 -1
335 -24 44 -18 78 -42 126 -90 92 -92 109 -140 118 -332 6 -123 11 -153 30
-190 47 -91 105 -132 305 -218 155 -67 202 -98 223 -150 35 -83 -12 -203 -97
-249 -44 -23 -48 -24 -215 -18 -210 8 -230 4 -455 -103 -91 -43 -186 -84 -212
-90 -79 -19 -167 -14 -224 13 -99 46 -150 122 -229 341 -26 72 -56 148 -68
170 -30 60 -112 176 -152 215 -53 52 -42 26 18 -40 73 -82 130 -185 186 -342
63 -176 102 -248 168 -308 126 -115 262 -105 553 40 170 85 206 95 325 90 246
-9 267 -8 320 25 90 56 131 182 88 272 -20 44 -73 82 -160 118 -238 98 -327
157 -366 245 -16 35 -22 78 -27 191 -6 135 -10 152 -37 212 -54 113 -140 189
-258 223 -50 14 -89 17 -230 14 -322 -8 -365 -3 -529 64 -47 19 -86 31 -86 27z" stroke="white" fill="none"/>
<path d="M2859 1832 c-82 -22 -171 -75 -214 -127 -18 -22 -59 -82 -90 -134
-103 -167 -180 -220 -357 -247 -110 -16 -160 -33 -197 -67 -71 -65 -68 -200 5
-269 45 -42 75 -48 239 -48 85 0 165 -4 179 -10 14 -5 53 -35 87 -66 79 -72
126 -94 209 -94 75 0 245 26 269 41 13 8 11 9 -9 5 -113 -22 -167 -29 -245
-30 -107 -1 -128 8 -220 94 -81 75 -113 84 -267 76 -138 -8 -188 2 -234 48
-45 45 -61 104 -45 164 21 81 81 124 191 136 208 25 301 86 415 275 86 143
140 192 251 230 33 11 86 21 117 22 31 1 57 6 57 11 0 13 -70 8 -141 -10z" stroke="white" fill="none"/>
<path d="M2994 1690 c0 -69 1 -97 3 -62 2 34 2 90 0 125 -2 34 -3 6 -3 -63z" stroke="white" fill="none"/>
<path d="M295 1725 c-44 -7 -128 -14 -187 -14 -65 -1 -108 -5 -108 -11 0 -15
156 -12 277 6 199 30 304 7 383 -84 75 -84 84 -116 90 -312 5 -154 8 -180 27
-215 30 -56 76 -97 158 -141 123 -65 152 -109 120 -178 -35 -74 -154 -119
-258 -96 -133 28 -194 88 -296 289 -107 210 -185 301 -337 394 -66 39 -164 81
-164 69 0 -4 17 -14 38 -21 112 -40 259 -149 336 -252 27 -35 80 -127 118
-203 85 -169 147 -239 243 -275 122 -46 272 -12 324 73 49 79 12 150 -110 212
-87 43 -132 83 -161 142 -20 43 -22 61 -23 207 0 152 -1 163 -27 217 -36 77
-106 151 -170 178 -64 28 -167 33 -273 15z" stroke="white" fill="none"/>
<path d="M2909 1530 c-72 -12 -128 -42 -202 -109 -81 -72 -105 -86 -177 -99
-76 -14 -107 -28 -135 -58 -44 -48 -29 -107 39 -150 22 -14 57 -19 157 -24
l128 -5 38 -36 c57 -54 105 -87 149 -102 62 -22 94 -28 94 -18 0 5 -21 14 -47
20 -64 17 -99 36 -153 87 -66 62 -102 74 -215 74 -102 0 -147 12 -179 48 -50
57 -1 120 114 146 93 22 121 36 200 108 81 73 129 97 214 105 36 3 66 10 66
14 0 10 -26 10 -91 -1z" stroke="white" fill="none"/>
<path d="M2943 1329 c-40 -26 -64 -62 -65 -101 -1 -43 40 -78 90 -77 l37 1
-39 9 c-22 5 -48 17 -58 26 -40 36 -11 105 60 143 21 10 30 19 22 19 -8 1 -29
-8 -47 -20z" stroke="white" fill="none"/>
<path d="M2 915 c0 -16 2 -22 5 -12 2 9 2 23 0 30 -3 6 -5 -1 -5 -18z" stroke="white" fill="none"/>
<path d="M2 860 c0 -14 2 -19 5 -12 2 6 2 18 0 25 -3 6 -5 1 -5 -13z" stroke="white" fill="none"/>
<path d="M2 810 c0 -14 2 -19 5 -12 2 6 2 18 0 25 -3 6 -5 1 -5 -13z" stroke="white" fill="none"/>
<path d="M4 660 c0 -52 1 -74 3 -47 2 26 2 68 0 95 -2 26 -3 4 -3 -48z" stroke="white" fill="none"/>
<path d="M2219 566 c-79 -28 -135 -95 -179 -213 -81 -220 -113 -252 -290 -288
-85 -17 -178 -51 -168 -61 3 -3 23 2 44 11 22 9 81 25 131 35 51 11 110 28
132 39 56 29 103 90 136 173 75 196 124 266 200 287 52 14 93 -2 176 -69 145
-118 290 -138 442 -61 70 36 156 101 157 119 0 8 -17 -1 -39 -20 -112 -95
-238 -139 -347 -121 -82 14 -135 40 -208 104 -82 70 -128 86 -187 65z" stroke="white" fill="none"/>
<path d="M0 522 c0 -29 86 -176 133 -229 61 -66 123 -99 216 -115 95 -16 215
6 397 73 306 113 427 118 521 24 60 -60 62 -113 5 -215 -19 -36 -29 -59 -20
-53 8 7 30 42 48 78 40 78 38 127 -7 184 -46 57 -111 85 -202 84 -91 -1 -151
-16 -347 -87 -174 -63 -263 -81 -367 -74 -144 9 -241 85 -330 255 -26 48 -46
82 -47 75z" stroke="white" fill="none"/>
<path d="M2991 464 c0 -11 3 -14 6 -6 3 7 2 16 -1 19 -3 4 -6 -2 -5 -13z" stroke="white" fill="none"/>
<path d="M2994 340 c0 -58 1 -81 3 -52 2 28 2 76 0 105 -2 28 -3 5 -3 -53z" stroke="white" fill="none"/>
<path d="M2304 239 c-49 -14 -89 -67 -103 -135 -6 -33 -18 -70 -27 -82 -13
-19 -13 -22 -1 -22 17 0 41 54 51 115 22 124 100 139 406 80 177 -34 257 -41
333 -29 60 10 42 21 -20 12 -70 -9 -147 -3 -268 24 -219 48 -305 56 -371 37z" stroke="white" fill="none"/>
<path d="M0 173 c0 -16 130 -173 143 -173 5 0 4 8 -4 18 -9 9 -39 46 -69 82
-30 36 -57 69 -62 75 -5 5 -8 5 -8 -2z"/>
<path d="M851 18 c-70 -12 -67 -13 33 -13 52 0 93 1 92 2 -10 10 -90 17 -125
11z" stroke="white" fill="none"/>
</g>
</svg>
